<mxfile host="Electron" modified="2023-05-20T04:08:46.722Z" agent="Mozilla/5.0 (Windows NT 10.0; Win64; x64) AppleWebKit/537.36 (KHTML, like Gecko) draw.io/21.2.8 Chrome/112.0.5615.165 Electron/24.2.0 Safari/537.36" etag="dxvTjTtxZ5PmJd6NgmMd" version="21.2.8" type="device">
  <diagram name="PÃ¡gina-1" id="9aZgOW50n6HkElAPM5IO">
    <mxGraphModel dx="974" dy="456" grid="1" gridSize="10" guides="1" tooltips="1" connect="1" arrows="1" fold="1" page="1" pageScale="1" pageWidth="827" pageHeight="1169" math="0" shadow="0">
      <root>
        <mxCell id="0" />
        <mxCell id="1" parent="0" />
        <mxCell id="v1SxuAbGYxE5bJOTU45O-1" value="" style="rounded=1;whiteSpace=wrap;html=1;arcSize=1;" vertex="1" parent="1">
          <mxGeometry x="40" y="10" width="770" height="420" as="geometry" />
        </mxCell>
        <mxCell id="v1SxuAbGYxE5bJOTU45O-2" value="" style="rounded=1;whiteSpace=wrap;html=1;arcSize=1;" vertex="1" parent="1">
          <mxGeometry x="110" y="70" width="70" height="60" as="geometry" />
        </mxCell>
        <mxCell id="v1SxuAbGYxE5bJOTU45O-3" value="" style="rounded=1;whiteSpace=wrap;html=1;arcSize=1;" vertex="1" parent="1">
          <mxGeometry x="180" y="70" width="70" height="60" as="geometry" />
        </mxCell>
        <mxCell id="v1SxuAbGYxE5bJOTU45O-4" value="" style="rounded=1;whiteSpace=wrap;html=1;arcSize=1;fontStyle=0" vertex="1" parent="1">
          <mxGeometry x="250" y="70" width="70" height="60" as="geometry" />
        </mxCell>
        <mxCell id="v1SxuAbGYxE5bJOTU45O-5" value="" style="rounded=1;whiteSpace=wrap;html=1;arcSize=1;" vertex="1" parent="1">
          <mxGeometry x="320" y="70" width="70" height="60" as="geometry" />
        </mxCell>
        <mxCell id="v1SxuAbGYxE5bJOTU45O-7" value="" style="rounded=1;whiteSpace=wrap;html=1;arcSize=1;" vertex="1" parent="1">
          <mxGeometry x="460" y="70" width="70" height="60" as="geometry" />
        </mxCell>
        <mxCell id="v1SxuAbGYxE5bJOTU45O-8" value="" style="rounded=1;whiteSpace=wrap;html=1;arcSize=1;" vertex="1" parent="1">
          <mxGeometry x="110" y="130" width="70" height="60" as="geometry" />
        </mxCell>
        <mxCell id="v1SxuAbGYxE5bJOTU45O-9" value="" style="rounded=1;whiteSpace=wrap;html=1;arcSize=1;" vertex="1" parent="1">
          <mxGeometry x="110" y="190" width="70" height="60" as="geometry" />
        </mxCell>
        <mxCell id="v1SxuAbGYxE5bJOTU45O-10" value="" style="rounded=1;whiteSpace=wrap;html=1;arcSize=1;" vertex="1" parent="1">
          <mxGeometry x="110" y="250" width="70" height="60" as="geometry" />
        </mxCell>
        <mxCell id="v1SxuAbGYxE5bJOTU45O-11" value="" style="rounded=1;whiteSpace=wrap;html=1;arcSize=1;" vertex="1" parent="1">
          <mxGeometry x="110" y="310" width="70" height="60" as="geometry" />
        </mxCell>
        <mxCell id="v1SxuAbGYxE5bJOTU45O-12" value="" style="rounded=1;whiteSpace=wrap;html=1;arcSize=1;" vertex="1" parent="1">
          <mxGeometry x="530" y="70" width="70" height="60" as="geometry" />
        </mxCell>
        <mxCell id="v1SxuAbGYxE5bJOTU45O-13" value="" style="rounded=1;whiteSpace=wrap;html=1;arcSize=1;" vertex="1" parent="1">
          <mxGeometry x="600" y="70" width="70" height="60" as="geometry" />
        </mxCell>
        <mxCell id="v1SxuAbGYxE5bJOTU45O-14" value="" style="rounded=1;whiteSpace=wrap;html=1;arcSize=1;" vertex="1" parent="1">
          <mxGeometry x="670" y="70" width="70" height="60" as="geometry" />
        </mxCell>
        <mxCell id="v1SxuAbGYxE5bJOTU45O-15" value="" style="rounded=1;whiteSpace=wrap;html=1;arcSize=1;" vertex="1" parent="1">
          <mxGeometry x="180" y="130" width="70" height="60" as="geometry" />
        </mxCell>
        <mxCell id="v1SxuAbGYxE5bJOTU45O-16" value="" style="rounded=1;whiteSpace=wrap;html=1;arcSize=1;" vertex="1" parent="1">
          <mxGeometry x="250" y="190" width="70" height="60" as="geometry" />
        </mxCell>
        <mxCell id="v1SxuAbGYxE5bJOTU45O-17" value="" style="rounded=1;whiteSpace=wrap;html=1;arcSize=1;" vertex="1" parent="1">
          <mxGeometry x="320" y="250" width="70" height="60" as="geometry" />
        </mxCell>
        <mxCell id="v1SxuAbGYxE5bJOTU45O-18" value="" style="rounded=1;whiteSpace=wrap;html=1;arcSize=1;" vertex="1" parent="1">
          <mxGeometry x="390" y="250" width="70" height="60" as="geometry" />
        </mxCell>
        <mxCell id="v1SxuAbGYxE5bJOTU45O-19" value="" style="rounded=1;whiteSpace=wrap;html=1;arcSize=1;" vertex="1" parent="1">
          <mxGeometry x="460" y="250" width="70" height="60" as="geometry" />
        </mxCell>
        <mxCell id="v1SxuAbGYxE5bJOTU45O-20" value="" style="rounded=1;whiteSpace=wrap;html=1;arcSize=1;" vertex="1" parent="1">
          <mxGeometry x="530" y="250" width="70" height="60" as="geometry" />
        </mxCell>
        <mxCell id="v1SxuAbGYxE5bJOTU45O-21" value="" style="rounded=1;whiteSpace=wrap;html=1;arcSize=1;" vertex="1" parent="1">
          <mxGeometry x="600" y="250" width="70" height="60" as="geometry" />
        </mxCell>
        <mxCell id="v1SxuAbGYxE5bJOTU45O-22" value="" style="rounded=1;whiteSpace=wrap;html=1;arcSize=1;" vertex="1" parent="1">
          <mxGeometry x="670" y="310" width="70" height="60" as="geometry" />
        </mxCell>
        <mxCell id="v1SxuAbGYxE5bJOTU45O-23" value="" style="rounded=1;whiteSpace=wrap;html=1;arcSize=1;" vertex="1" parent="1">
          <mxGeometry x="390" y="70" width="70" height="60" as="geometry" />
        </mxCell>
        <mxCell id="v1SxuAbGYxE5bJOTU45O-24" value="" style="rounded=1;whiteSpace=wrap;html=1;arcSize=1;" vertex="1" parent="1">
          <mxGeometry x="250" y="130" width="70" height="60" as="geometry" />
        </mxCell>
        <mxCell id="v1SxuAbGYxE5bJOTU45O-25" value="" style="rounded=1;whiteSpace=wrap;html=1;arcSize=1;" vertex="1" parent="1">
          <mxGeometry x="320" y="130" width="70" height="60" as="geometry" />
        </mxCell>
        <mxCell id="v1SxuAbGYxE5bJOTU45O-26" value="" style="rounded=1;whiteSpace=wrap;html=1;arcSize=1;" vertex="1" parent="1">
          <mxGeometry x="390" y="130" width="70" height="60" as="geometry" />
        </mxCell>
        <mxCell id="v1SxuAbGYxE5bJOTU45O-27" value="" style="rounded=1;whiteSpace=wrap;html=1;arcSize=1;" vertex="1" parent="1">
          <mxGeometry x="460" y="130" width="70" height="60" as="geometry" />
        </mxCell>
        <mxCell id="v1SxuAbGYxE5bJOTU45O-28" value="" style="rounded=1;whiteSpace=wrap;html=1;arcSize=1;" vertex="1" parent="1">
          <mxGeometry x="530" y="130" width="70" height="60" as="geometry" />
        </mxCell>
        <mxCell id="v1SxuAbGYxE5bJOTU45O-29" value="" style="rounded=1;whiteSpace=wrap;html=1;arcSize=1;" vertex="1" parent="1">
          <mxGeometry x="320" y="190" width="70" height="60" as="geometry" />
        </mxCell>
        <mxCell id="v1SxuAbGYxE5bJOTU45O-30" value="" style="rounded=1;whiteSpace=wrap;html=1;arcSize=1;" vertex="1" parent="1">
          <mxGeometry x="390" y="190" width="70" height="60" as="geometry" />
        </mxCell>
        <mxCell id="v1SxuAbGYxE5bJOTU45O-31" value="" style="rounded=1;whiteSpace=wrap;html=1;arcSize=1;" vertex="1" parent="1">
          <mxGeometry x="460" y="190" width="70" height="60" as="geometry" />
        </mxCell>
        <mxCell id="v1SxuAbGYxE5bJOTU45O-32" value="" style="rounded=1;whiteSpace=wrap;html=1;arcSize=1;" vertex="1" parent="1">
          <mxGeometry x="530" y="190" width="70" height="60" as="geometry" />
        </mxCell>
        <mxCell id="v1SxuAbGYxE5bJOTU45O-33" value="" style="rounded=1;whiteSpace=wrap;html=1;arcSize=1;" vertex="1" parent="1">
          <mxGeometry x="600" y="190" width="70" height="60" as="geometry" />
        </mxCell>
        <mxCell id="v1SxuAbGYxE5bJOTU45O-34" value="" style="rounded=1;whiteSpace=wrap;html=1;arcSize=1;" vertex="1" parent="1">
          <mxGeometry x="320" y="310" width="70" height="60" as="geometry" />
        </mxCell>
        <mxCell id="v1SxuAbGYxE5bJOTU45O-35" value="" style="rounded=1;whiteSpace=wrap;html=1;arcSize=1;" vertex="1" parent="1">
          <mxGeometry x="390" y="310" width="70" height="60" as="geometry" />
        </mxCell>
        <mxCell id="v1SxuAbGYxE5bJOTU45O-36" value="" style="rounded=1;whiteSpace=wrap;html=1;arcSize=1;" vertex="1" parent="1">
          <mxGeometry x="460" y="310" width="70" height="60" as="geometry" />
        </mxCell>
        <mxCell id="v1SxuAbGYxE5bJOTU45O-37" value="" style="rounded=1;whiteSpace=wrap;html=1;arcSize=1;" vertex="1" parent="1">
          <mxGeometry x="530" y="310" width="70" height="60" as="geometry" />
        </mxCell>
        <mxCell id="v1SxuAbGYxE5bJOTU45O-38" value="" style="rounded=1;whiteSpace=wrap;html=1;arcSize=1;" vertex="1" parent="1">
          <mxGeometry x="600" y="310" width="70" height="60" as="geometry" />
        </mxCell>
        <mxCell id="v1SxuAbGYxE5bJOTU45O-39" value="" style="rounded=1;whiteSpace=wrap;html=1;arcSize=1;" vertex="1" parent="1">
          <mxGeometry x="180" y="190" width="70" height="60" as="geometry" />
        </mxCell>
        <mxCell id="v1SxuAbGYxE5bJOTU45O-40" value="" style="rounded=1;whiteSpace=wrap;html=1;arcSize=1;" vertex="1" parent="1">
          <mxGeometry x="180" y="250" width="70" height="60" as="geometry" />
        </mxCell>
        <mxCell id="v1SxuAbGYxE5bJOTU45O-41" value="" style="rounded=1;whiteSpace=wrap;html=1;arcSize=1;" vertex="1" parent="1">
          <mxGeometry x="180" y="310" width="70" height="60" as="geometry" />
        </mxCell>
        <mxCell id="v1SxuAbGYxE5bJOTU45O-42" value="" style="rounded=1;whiteSpace=wrap;html=1;arcSize=1;" vertex="1" parent="1">
          <mxGeometry x="250" y="250" width="70" height="60" as="geometry" />
        </mxCell>
        <mxCell id="v1SxuAbGYxE5bJOTU45O-43" value="" style="rounded=1;whiteSpace=wrap;html=1;arcSize=1;" vertex="1" parent="1">
          <mxGeometry x="250" y="310" width="70" height="60" as="geometry" />
        </mxCell>
        <mxCell id="v1SxuAbGYxE5bJOTU45O-46" value="" style="rounded=1;whiteSpace=wrap;html=1;arcSize=1;" vertex="1" parent="1">
          <mxGeometry x="670" y="190" width="70" height="60" as="geometry" />
        </mxCell>
        <mxCell id="v1SxuAbGYxE5bJOTU45O-47" value="" style="rounded=1;whiteSpace=wrap;html=1;arcSize=1;" vertex="1" parent="1">
          <mxGeometry x="670" y="130" width="70" height="60" as="geometry" />
        </mxCell>
        <mxCell id="v1SxuAbGYxE5bJOTU45O-48" value="" style="rounded=1;whiteSpace=wrap;html=1;arcSize=1;" vertex="1" parent="1">
          <mxGeometry x="670" y="250" width="70" height="60" as="geometry" />
        </mxCell>
        <mxCell id="v1SxuAbGYxE5bJOTU45O-49" value="" style="rounded=1;whiteSpace=wrap;html=1;arcSize=1;" vertex="1" parent="1">
          <mxGeometry x="600" y="130" width="70" height="60" as="geometry" />
        </mxCell>
        <mxCell id="v1SxuAbGYxE5bJOTU45O-51" value="" style="rounded=1;whiteSpace=wrap;html=1;arcSize=1;" vertex="1" parent="1">
          <mxGeometry x="40" y="10" width="70" height="60" as="geometry" />
        </mxCell>
      </root>
    </mxGraphModel>
  </diagram>
</mxfile>
